<svg width="1080" height="644" viewBox="0 0 1080 644" fill="none" xmlns="http://www.w3.org/2000/svg">
<rect width="1080" height="644" fill="white"/>
<g clip-path="url(#clip0_222_22)">
<path d="M732.117 161.465H346.178C335.267 161.465 326.422 170.303 326.422 181.205V408.92C326.422 419.822 335.267 428.66 346.178 428.66H732.117C743.027 428.66 751.872 419.822 751.872 408.92V181.205C751.872 170.303 743.027 161.465 732.117 161.465Z" fill="white" stroke="#E1E4E5" stroke-width="4"/>
<path d="M376.879 256.504H358.878C357.319 256.504 356.056 257.766 356.056 259.324V368.03C356.056 369.587 357.319 370.85 358.878 370.85H376.879C378.438 370.85 379.702 369.587 379.702 368.03V259.324C379.702 257.766 378.438 256.504 376.879 256.504Z" fill="#EB4432"/>
<path d="M414.385 219.275H395.569C394.01 219.275 392.747 220.537 392.747 222.095V368.03C392.747 369.587 394.01 370.85 395.569 370.85H414.385C415.944 370.85 417.207 369.587 417.207 368.03V222.095C417.207 220.537 415.944 219.275 414.385 219.275Z" fill="#EB4432"/>
<path d="M450.262 256.504H432.26C430.702 256.504 429.438 257.766 429.438 259.324V368.03C429.438 369.587 430.702 370.85 432.26 370.85H450.262C451.821 370.85 453.084 369.587 453.084 368.03V259.324C453.084 257.766 451.821 256.504 450.262 256.504Z" fill="#EB4432"/>
<path d="M525.276 256.504H507.274C505.716 256.504 504.452 257.766 504.452 259.324V368.03C504.452 369.587 505.716 370.85 507.274 370.85H525.276C526.835 370.85 528.098 369.587 528.098 368.03V259.324C528.098 257.766 526.835 256.504 525.276 256.504Z" fill="#EB4432"/>
<path d="M487.769 219.275H469.768C468.209 219.275 466.946 220.537 466.946 222.095V368.03C466.946 369.587 468.209 370.85 469.768 370.85H487.769C489.328 370.85 490.592 369.587 490.592 368.03V222.095C490.592 220.537 489.328 219.275 487.769 219.275Z" fill="#EB4432"/>
<path d="M562.783 219.275H544.782C543.223 219.275 541.959 220.537 541.959 222.095V368.03C541.959 369.587 543.223 370.85 544.782 370.85H562.783C564.342 370.85 565.605 369.587 565.605 368.03V222.095C565.605 220.537 564.342 219.275 562.783 219.275Z" fill="#EB4432"/>
<path d="M732.629 291.793C732.629 332.237 699.823 365.017 659.348 365.017C618.872 365.017 586.067 332.237 586.067 291.793C586.067 251.35 618.872 218.57 659.348 218.57C699.823 218.57 732.629 251.35 732.629 291.793Z" stroke="#E1E4E5" stroke-width="4" stroke-linecap="round" stroke-linejoin="round"/>
<path d="M711.166 343.571L661.733 294.178C660.977 293.422 660.377 292.525 659.967 291.538C659.558 290.551 659.348 289.493 659.348 288.425V218.57M659.916 291.468L722.775 255.182" stroke="#E1E4E5" stroke-width="4" stroke-linecap="round" stroke-linejoin="round"/>
<path d="M722.811 255.181L662.27 290.108C661.343 290.641 660.531 291.352 659.88 292.2C659.229 293.047 658.752 294.015 658.475 295.047L640.381 362.522M659.813 292.255L711.131 343.561" stroke="#E1E4E5" stroke-width="4" stroke-linecap="round" stroke-linejoin="round"/>
<path d="M703.891 488.208C703.891 488.208 692.75 460.122 680.3 450.456C667.98 440.893 631.453 422.7 611.681 396.509C611.495 396.265 611.399 395.964 611.411 395.658C611.422 395.351 611.541 395.058 611.745 394.83C613.255 393.177 617.549 390.278 626.762 396.114C638.74 403.731 648.062 409.325 648.062 409.325C648.062 409.325 631.86 350.279 628.66 333.953C628.027 330.73 627.879 328.067 628.07 325.834C628.667 318.87 638.561 318.013 640.504 324.73L651.882 364.03C651.882 364.03 652.897 359.485 656.976 358.655C660.837 357.879 666.603 362.86 668.032 369.123C668.032 369.123 669.602 364.116 675.005 364.612C680.407 365.109 684.052 371.739 685.158 375.314C685.158 375.314 685.618 370.213 689.612 369.45C693.605 368.688 699.375 375.004 700.489 377.452C701.603 379.898 714.407 398.569 719.873 433.347L750.718 466.641C750.718 466.641 747.95 483.563 703.891 488.208ZM354.592 501.982C354.592 501.982 367.657 469.044 382.258 457.708C396.705 446.494 439.543 425.158 462.729 394.443C462.948 394.157 463.06 393.804 463.047 393.445C463.033 393.085 462.894 392.742 462.654 392.474C460.883 390.534 455.847 387.135 445.044 393.98C430.996 402.913 420.064 409.473 420.064 409.473C420.064 409.473 439.064 340.227 442.817 321.081C443.56 317.302 443.734 314.178 443.51 311.559C442.81 303.392 431.206 302.388 428.927 310.265L415.584 356.354C415.584 356.354 414.394 351.023 409.61 350.05C405.082 349.14 398.32 354.982 396.645 362.326C396.645 362.326 394.804 356.454 388.468 357.036C382.131 357.618 377.857 365.394 376.56 369.587C376.56 369.587 376.021 363.605 371.337 362.71C366.654 361.816 359.887 369.224 358.581 372.093C357.275 374.962 342.26 396.859 335.848 437.644L299.676 476.689C299.676 476.689 302.922 496.534 354.592 501.982Z" fill="#F8AE9D"/>
<path d="M570.477 415.719C557.323 418.833 543.411 407.686 543.411 407.686C543.411 407.686 550.835 391.497 563.993 388.393C577.147 385.28 591.055 396.417 591.055 396.417C591.055 396.417 583.631 412.606 570.477 415.719Z" fill="url(#paint0_linear_222_22)"/>
<path d="M738.827 391.334C739.225 385.868 733.858 381.018 733.858 381.018C733.858 381.018 727.846 385.035 727.451 390.503C727.052 395.97 732.416 400.819 732.416 400.819C732.416 400.819 738.427 396.801 738.827 391.334Z" fill="url(#paint1_linear_222_22)"/>
<path d="M286.77 362.025C295.541 370.946 311.943 369.065 311.943 369.065C311.943 369.065 314.114 352.722 305.334 343.807C296.564 334.887 280.17 336.762 280.17 336.762C280.17 336.762 277.998 353.106 286.77 362.025Z" fill="url(#paint2_linear_222_22)"/>
<path d="M648.29 454.745C642.37 454.745 637.572 459.54 637.572 465.454C637.572 471.369 642.37 476.164 648.29 476.164C654.209 476.164 659.008 471.369 659.008 465.454C659.008 459.54 654.209 454.745 648.29 454.745Z" fill="#EB4432"/>
<path d="M593.309 364.505C590.478 364.505 588.183 366.798 588.183 369.627C588.183 372.455 590.478 374.749 593.309 374.749C596.14 374.749 598.435 372.455 598.435 369.627C598.435 366.798 596.14 364.505 593.309 364.505Z" fill="#EB4432"/>
<path d="M525.389 439.235C520.323 439.235 516.217 435.131 516.217 430.07C516.217 425.008 520.323 420.905 525.389 420.905C530.454 420.905 534.561 425.008 534.561 430.07C534.561 435.131 530.454 439.235 525.389 439.235Z" fill="#EB4432"/>
<path d="M415.322 465.32C411.036 465.32 407.561 461.848 407.561 457.565C407.561 453.282 411.036 449.81 415.322 449.81C419.608 449.81 423.083 453.282 423.083 457.565C423.083 461.848 419.608 465.32 415.322 465.32Z" fill="#EB4432"/>
<path d="M772.268 408.789C768.407 408.789 765.278 405.662 765.278 401.804C765.278 397.947 768.407 394.82 772.268 394.82C776.128 394.82 779.258 397.947 779.258 401.804C779.258 405.662 776.128 408.789 772.268 408.789Z" fill="#E1E4E5"/>
<path d="M269.664 472.536C265.551 472.536 262.217 469.204 262.217 465.094C262.217 460.984 265.551 457.652 269.664 457.652C273.778 457.652 277.112 460.984 277.112 465.094C277.112 469.204 273.778 472.536 269.664 472.536Z" fill="white"/>
<path d="M498.201 406.758C494.902 406.758 492.227 404.086 492.227 400.789C492.227 397.492 494.902 394.82 498.201 394.82C501.5 394.82 504.175 397.492 504.175 400.789C504.175 404.086 501.5 406.758 498.201 406.758Z" fill="#E1E4E5"/>
<path d="M718.656 195.902C713.62 195.902 709.538 191.823 709.538 186.791C709.538 181.759 713.62 177.68 718.656 177.68C723.692 177.68 727.774 181.759 727.774 186.791C727.774 191.823 723.692 195.902 718.656 195.902Z" fill="#E1E4E5"/>
<path d="M310.757 424.967C311.254 426.821 310.153 428.726 308.298 429.223C306.442 429.72 304.535 428.619 304.038 426.766C303.541 424.912 304.642 423.007 306.497 422.51C308.353 422.013 310.26 423.113 310.757 424.967Z" fill="#E1E4E5"/>
<path d="M441.601 234.425C437.219 234.425 433.667 230.876 433.667 226.498C433.667 222.119 437.219 218.57 441.601 218.57C445.983 218.57 449.535 222.119 449.535 226.498C449.535 230.876 445.983 234.425 441.601 234.425Z" fill="#E1E4E5"/>
<path d="M709.834 389.751C706.464 389.751 703.731 387.567 703.731 384.872C703.731 382.178 706.464 379.994 709.834 379.994C713.205 379.994 715.938 382.178 715.938 384.872C715.938 387.567 713.205 389.751 709.834 389.751Z" fill="white"/>
<path d="M808.411 473.656C803.48 476.059 797.943 474.855 796.044 470.965C794.145 467.076 796.603 461.974 801.533 459.57C806.464 457.167 812.001 458.371 813.9 462.261C815.799 466.15 813.341 471.252 808.411 473.656Z" fill="white"/>
<path d="M598.767 213.282C598.767 216.981 595.766 219.98 592.064 219.98C588.362 219.98 585.361 216.981 585.361 213.282C585.361 209.584 588.362 206.585 592.064 206.585C595.766 206.585 598.767 209.584 598.767 213.282Z" fill="#E1E4E5"/>
<path d="M366.959 213.635H367.119C368.064 227.02 378.027 227.226 378.027 227.226C378.027 227.226 367.041 227.44 367.041 242.906C367.041 227.44 356.055 227.226 356.055 227.226C356.055 227.226 366.013 227.02 366.959 213.635ZM618.137 290.48H618.297C619.242 303.865 629.204 304.071 629.204 304.071C629.204 304.071 618.219 304.285 618.219 319.751C618.219 304.285 607.233 304.071 607.233 304.071C607.233 304.071 617.192 303.865 618.137 290.48ZM516.318 213.635H516.433C517.115 223.429 524.3 223.58 524.3 223.58C524.3 223.58 516.377 223.737 516.377 235.054C516.377 223.737 508.455 223.58 508.455 223.58C508.455 223.58 515.636 223.429 516.318 213.635Z" fill="#E1E4E5"/>
</g>
<path d="M123.992 543.096H135.704C145.112 543.096 149.816 547.064 149.816 555V571.32H125.336V577.656C125.336 579.064 126.136 579.768 127.736 579.768H131.96C133.56 579.768 134.36 579 134.36 577.464V574.776H149.816V579.096C149.816 587.032 145.112 591 135.704 591H123.992C114.584 591 109.88 587.032 109.88 579.096V555C109.88 547.064 114.584 543.096 123.992 543.096ZM125.336 562.488H134.36V556.44C134.36 555.032 133.56 554.328 131.96 554.328H127.736C126.136 554.328 125.336 555.032 125.336 556.44V562.488ZM197.308 552.408H180.508V542.52C180.508 541.112 179.708 540.408 178.108 540.408H174.748C173.148 540.408 172.348 541.112 172.348 542.52V577.848C172.348 579.256 173.148 579.96 174.748 579.96H178.108C179.708 579.96 180.508 579.256 180.508 577.848V568.344H197.308V579.096C197.308 587.032 192.604 591 183.196 591H169.66C160.252 591 155.548 587.032 155.548 579.096V541.272C155.548 533.336 160.252 529.368 169.66 529.368H183.196C192.604 529.368 197.308 533.336 197.308 541.272V552.408ZM216.711 543.096H228.903C233.767 543.096 237.255 544.12 239.367 546.168C241.479 548.216 242.535 551.16 242.535 555V579.096C242.535 582.936 241.479 585.88 239.367 587.928C237.255 589.976 233.767 591 228.903 591H216.711C211.847 591 208.359 589.976 206.247 587.928C204.135 585.88 203.079 582.936 203.079 579.096V555C203.079 551.16 204.135 548.216 206.247 546.168C208.359 544.12 211.847 543.096 216.711 543.096ZM226.503 577.56V556.536C226.503 555.128 225.703 554.424 224.103 554.424H221.511C219.911 554.424 219.111 555.128 219.111 556.536V577.56C219.111 578.968 219.911 579.672 221.511 579.672H224.103C225.703 579.672 226.503 578.968 226.503 577.56ZM297.49 543.096H299.218C307.73 543.096 311.986 547.064 311.986 555V591H295.666V557.208C295.666 555.8 294.866 555.096 293.266 555.096H291.634C289.906 555.096 289.042 556.056 289.042 557.976V591H272.722V557.208C272.722 555.8 271.922 555.096 270.322 555.096H268.69C266.962 555.096 266.098 556.056 266.098 557.976V591H249.778V543.096H265.81V549.24C266.706 545.144 269.618 543.096 274.546 543.096H276.274C282.226 543.096 286.13 545.112 287.986 549.144C288.498 547.288 289.618 545.816 291.346 544.728C293.074 543.64 295.122 543.096 297.49 543.096ZM366.865 543.096H368.593C377.105 543.096 381.361 547.064 381.361 555V591H365.041V557.208C365.041 555.8 364.241 555.096 362.641 555.096H361.009C359.281 555.096 358.417 556.056 358.417 557.976V591H342.097V557.208C342.097 555.8 341.297 555.096 339.697 555.096H338.065C336.337 555.096 335.473 556.056 335.473 557.976V591H319.153V543.096H335.185V549.24C336.081 545.144 338.993 543.096 343.921 543.096H345.649C351.601 543.096 355.505 545.112 357.361 549.144C357.873 547.288 358.993 545.816 360.721 544.728C362.449 543.64 364.497 543.096 366.865 543.096ZM401.68 543.096H413.392C422.8 543.096 427.504 547.064 427.504 555V571.32H403.024V577.656C403.024 579.064 403.824 579.768 405.424 579.768H409.648C411.248 579.768 412.048 579 412.048 577.464V574.776H427.504V579.096C427.504 587.032 422.8 591 413.392 591H401.68C392.272 591 387.568 587.032 387.568 579.096V555C387.568 547.064 392.272 543.096 401.68 543.096ZM403.024 562.488H412.048V556.44C412.048 555.032 411.248 554.328 409.648 554.328H405.424C403.824 554.328 403.024 555.032 403.024 556.44V562.488ZM460.115 542.616H461.555V556.824H456.083C452.051 556.824 450.035 559 450.035 563.352V591H433.715V543.096H449.747V550.488C450.259 548.056 451.411 546.136 453.203 544.728C454.995 543.32 457.299 542.616 460.115 542.616ZM503.407 561.624H487.663V557.208C487.663 555.8 486.863 555.096 485.263 555.096H483.631C482.031 555.096 481.231 555.8 481.231 557.208V576.888C481.231 578.296 482.031 579 483.631 579H485.263C486.863 579 487.663 578.296 487.663 576.888V572.472H503.407V579.096C503.407 587.032 498.703 591 489.295 591H479.023C469.615 591 464.911 587.032 464.911 579.096V555C464.911 547.064 469.615 543.096 479.023 543.096H489.295C498.703 543.096 503.407 547.064 503.407 555V561.624ZM522.336 543.096H534.048C543.456 543.096 548.16 547.064 548.16 555V571.32H523.68V577.656C523.68 579.064 524.48 579.768 526.08 579.768H530.304C531.904 579.768 532.704 579 532.704 577.464V574.776H548.16V579.096C548.16 587.032 543.456 591 534.048 591H522.336C512.928 591 508.224 587.032 508.224 579.096V555C508.224 547.064 512.928 543.096 522.336 543.096ZM523.68 562.488H532.704V556.44C532.704 555.032 531.904 554.328 530.304 554.328H526.08C524.48 554.328 523.68 555.032 523.68 556.44V562.488ZM574.55 529.368H602.87C612.278 529.368 616.982 533.336 616.982 541.272V579.096C616.982 587.032 612.278 591 602.87 591H574.55V529.368ZM600.182 577.848V542.52C600.182 541.112 599.382 540.408 597.782 540.408H591.35V579.96H597.782C599.382 579.96 600.182 579.256 600.182 577.848ZM646.675 543.096H662.707V591H646.387V585.816C645.171 589.272 642.355 591 637.939 591H636.211C627.699 591 623.443 587.032 623.443 579.096V555C623.443 547.064 627.699 543.096 636.211 543.096H637.939C642.867 543.096 645.779 545.144 646.675 549.24V543.096ZM642.163 579H643.795C645.523 579 646.387 578.04 646.387 576.12V557.976C646.387 556.056 645.523 555.096 643.795 555.096H642.163C640.563 555.096 639.763 555.8 639.763 557.208V576.888C639.763 578.296 640.563 579 642.163 579ZM690.98 578.328V574.488C690.98 573.08 690.18 572.376 688.58 572.376H682.724C673.508 572.376 668.9 568.44 668.9 560.568V555C668.9 547.064 673.604 543.096 683.012 543.096H691.94C701.348 543.096 706.052 547.064 706.052 555V559.032H690.5V555.768C690.5 554.36 689.7 553.656 688.1 553.656H687.14C685.54 553.656 684.74 554.36 684.74 555.768V559.992C684.74 561.4 685.54 562.104 687.14 562.104H692.996C697.924 562.104 701.444 563.128 703.556 565.176C705.732 567.16 706.82 570.04 706.82 573.816V579.096C706.82 587.032 702.116 591 692.708 591H683.3C673.892 591 669.188 587.032 669.188 579.096V575.16H685.028V578.328C685.028 579.736 685.828 580.44 687.428 580.44H688.58C690.18 580.44 690.98 579.736 690.98 578.328ZM737.858 543.096H739.586C748.098 543.096 752.354 547.064 752.354 555V591H736.034V557.208C736.034 555.8 735.234 555.096 733.634 555.096H732.002C730.274 555.096 729.41 556.056 729.41 557.976V591H713.09V526.776H729.41V548.28C730.626 544.824 733.442 543.096 737.858 543.096ZM784.358 543.096H786.086C794.598 543.096 798.854 547.064 798.854 555V579.096C798.854 587.032 794.598 591 786.086 591H784.358C779.43 591 776.518 588.952 775.622 584.856V591H759.59V526.776H775.91V548.28C777.126 544.824 779.942 543.096 784.358 543.096ZM782.534 576.888V557.208C782.534 555.8 781.734 555.096 780.134 555.096H778.502C776.774 555.096 775.91 556.056 775.91 557.976V576.12C775.91 578.04 776.774 579 778.502 579H780.134C781.734 579 782.534 578.296 782.534 576.888ZM818.68 543.096H830.872C835.736 543.096 839.224 544.12 841.336 546.168C843.448 548.216 844.504 551.16 844.504 555V579.096C844.504 582.936 843.448 585.88 841.336 587.928C839.224 589.976 835.736 591 830.872 591H818.68C813.816 591 810.328 589.976 808.216 587.928C806.104 585.88 805.048 582.936 805.048 579.096V555C805.048 551.16 806.104 548.216 808.216 546.168C810.328 544.12 813.816 543.096 818.68 543.096ZM828.472 577.56V556.536C828.472 555.128 827.672 554.424 826.072 554.424H823.48C821.88 554.424 821.08 555.128 821.08 556.536V577.56C821.08 578.968 821.88 579.672 823.48 579.672H826.072C827.672 579.672 828.472 578.968 828.472 577.56ZM874.018 543.096H890.05V591H873.73V585.816C872.514 589.272 869.698 591 865.282 591H863.554C855.042 591 850.786 587.032 850.786 579.096V555C850.786 547.064 855.042 543.096 863.554 543.096H865.282C870.21 543.096 873.122 545.144 874.018 549.24V543.096ZM869.506 579H871.138C872.866 579 873.73 578.04 873.73 576.12V557.976C873.73 556.056 872.866 555.096 871.138 555.096H869.506C867.906 555.096 867.106 555.8 867.106 557.208V576.888C867.106 578.296 867.906 579 869.506 579ZM924.084 542.616H925.524V556.824H920.052C916.02 556.824 914.004 559 914.004 563.352V591H897.684V543.096H913.716V550.488C914.228 548.056 915.38 546.136 917.172 544.728C918.964 543.32 921.268 542.616 924.084 542.616ZM951.824 526.776H968.144V591H952.112V584.856C951.216 588.952 948.304 591 943.376 591H941.648C933.136 591 928.88 587.032 928.88 579.096V555C928.88 547.064 933.136 543.096 941.648 543.096H943.376C947.792 543.096 950.608 544.824 951.824 548.28V526.776ZM947.6 579H949.232C950.96 579 951.824 578.04 951.824 576.12V557.976C951.824 556.056 950.96 555.096 949.232 555.096H947.6C946 555.096 945.2 555.8 945.2 557.208V576.888C945.2 578.296 946 579 947.6 579Z" fill="#232323"/>
<path fill-rule="evenodd" clip-rule="evenodd" d="M332.647 50.0144C332.679 50.1323 332.696 50.2539 332.696 50.3761V69.3661C332.696 69.6099 332.631 69.8493 332.508 70.0602C332.385 70.2711 332.207 70.446 331.994 70.5673L315.915 79.7438V97.9325C315.915 98.4275 315.65 98.8844 315.217 99.1336L281.653 118.286C281.576 118.33 281.493 118.357 281.409 118.387C281.377 118.397 281.348 118.416 281.315 118.425C281.08 118.486 280.833 118.486 280.599 118.425C280.56 118.414 280.525 118.394 280.489 118.38C280.412 118.352 280.332 118.328 280.258 118.286L246.702 99.1336C246.489 99.0122 246.312 98.8373 246.188 98.6264C246.065 98.4155 246 98.1762 246 97.9325V40.9625C246 40.8379 246.017 40.7167 246.049 40.599C246.059 40.5592 246.084 40.5229 246.098 40.483C246.124 40.4104 246.148 40.3359 246.187 40.2684C246.213 40.2234 246.251 40.1871 246.283 40.1455C246.323 40.0902 246.36 40.033 246.407 39.9846C246.447 39.9448 246.499 39.9154 246.545 39.8807C246.595 39.8392 246.641 39.7942 246.698 39.7613H246.7L263.479 30.185C263.692 30.0638 263.932 30 264.178 30C264.423 30 264.664 30.0638 264.876 30.185L281.655 39.7613H281.659C281.714 39.7959 281.762 39.8392 281.812 39.879C281.858 39.9136 281.908 39.9448 281.948 39.9829C281.997 40.033 282.032 40.0902 282.074 40.1455C282.104 40.1871 282.144 40.2234 282.168 40.2684C282.209 40.3377 282.231 40.4104 282.259 40.483C282.273 40.5229 282.298 40.5592 282.308 40.6007C282.34 40.7187 282.357 40.8403 282.357 40.9625V76.5454L296.339 68.5648V50.3744C296.339 50.2532 296.356 50.1304 296.388 50.0144C296.4 49.9729 296.423 49.9365 296.437 49.8967C296.465 49.824 296.489 49.7496 296.527 49.6821C296.554 49.6371 296.592 49.6007 296.622 49.5592C296.664 49.5038 296.699 49.4467 296.747 49.3982C296.788 49.3584 296.838 49.329 296.884 49.2944C296.936 49.2529 296.981 49.2079 297.037 49.175H297.039L313.82 39.5986C314.032 39.4773 314.273 39.4134 314.518 39.4134C314.763 39.4134 315.004 39.4773 315.217 39.5986L331.996 49.175C332.055 49.2096 332.1 49.2529 332.153 49.2927C332.197 49.3273 332.247 49.3584 332.287 49.3965C332.336 49.4467 332.371 49.5038 332.413 49.5592C332.444 49.6007 332.483 49.6371 332.507 49.6821C332.547 49.7496 332.57 49.824 332.598 49.8967C332.614 49.9365 332.637 49.9729 332.647 50.0144ZM329.899 68.5648V52.7732L324.027 56.124L315.915 60.7538V76.5454L329.901 68.5648H329.899ZM313.12 97.1311V81.3292L305.141 85.8465L282.355 98.7373V114.688L313.12 97.1311ZM248.797 43.3596V97.1311L279.558 114.686V98.739L263.488 89.7234L263.483 89.72L263.476 89.7165C263.422 89.6854 263.376 89.6404 263.326 89.6023C263.282 89.5677 263.231 89.54 263.193 89.5019L263.189 89.4967C263.144 89.4534 263.113 89.3998 263.074 89.3513C263.039 89.3046 262.997 89.2648 262.969 89.2163L262.968 89.2111C262.936 89.1592 262.917 89.0969 262.894 89.038C262.872 88.9861 262.842 88.9377 262.828 88.8823V88.8805C262.81 88.8148 262.807 88.7455 262.8 88.678C262.793 88.6261 262.779 88.5742 262.779 88.5223V88.5188V51.3402L254.669 46.7086L248.797 43.3613V43.3596ZM264.179 32.9854L250.199 40.9625L264.176 48.9396L278.154 40.9607L264.176 32.9854H264.179ZM271.45 82.7692L279.56 78.1411V43.3596L273.688 46.7104L265.576 51.3402V86.1217L271.45 82.7692ZM314.518 42.399L300.54 50.3761L314.518 58.3532L328.495 50.3744L314.518 42.399ZM313.12 60.7538L305.008 56.124L299.136 52.7732V68.5648L307.246 73.1929L313.12 76.5454V60.7538ZM280.955 96.3402L301.458 84.7371L311.707 78.939L297.739 70.9671L281.657 80.1454L266.999 88.5102L280.955 96.3402Z" fill="#FF2D20"/>
<g clip-path="url(#clip1_222_22)">
<path d="M35 45.6646C35 37.0132 42.0068 30 50.6501 30H201.744V73.576H35V45.6646Z" fill="#F3F4F7"/>
<path d="M79.1525 44.3774H65.5671C64.3774 44.4016 63.3696 44.6568 62.5441 45.1429C61.7428 45.6047 61.3421 46.5039 61.3421 47.8406C61.3421 48.8614 61.6821 49.5905 62.362 50.028C63.0661 50.4655 63.8794 50.6842 64.8022 50.6842L72.0866 50.6477C72.3538 50.672 72.6329 50.6842 72.9243 50.6842C73.2157 50.6842 73.5071 50.6964 73.7984 50.7206C74.6484 50.7693 75.4861 50.9151 76.3116 51.1581C77.137 51.3768 77.8655 51.79 78.4969 52.3976C79.0796 52.9323 79.5167 53.5764 79.8081 54.3298C80.0994 55.0832 80.2815 55.8609 80.3544 56.6629C80.3786 56.906 80.3908 57.149 80.3908 57.392C80.415 57.6108 80.4272 57.8417 80.4272 58.0847C80.3786 61.1228 79.5409 63.1885 77.9141 64.2822C76.2874 65.3516 74.0776 65.8862 71.2853 65.8862H56.6437V61.2199H70.4112C71.6254 61.2441 72.6694 61.0499 73.5435 60.6366C74.4418 60.2233 74.806 59.2877 74.6362 57.8295C74.5147 56.6872 74.0898 55.9824 73.3614 55.7151C72.6329 55.4477 71.7711 55.3019 70.7754 55.2776L64.2923 55.2412C61.5971 55.2654 59.4604 54.7308 57.8821 53.6371C56.3281 52.5191 55.5632 50.5141 55.5875 47.6219C55.636 44.5839 56.4738 42.5181 58.1006 41.4244C59.7517 40.3065 61.9735 39.7475 64.7658 39.7475L79.1525 39.711V44.3774ZM90.2569 44.3044H81.8434V39.7475H104.425V44.3044H95.9387V65.8862H90.2569V44.3044ZM111.824 48.8614C111.654 49.5176 111.532 50.186 111.46 50.8665C111.387 51.5227 111.35 52.1789 111.35 52.8351C111.35 53.5156 111.387 54.1961 111.46 54.8766C111.557 55.5328 111.678 56.1768 111.824 56.8087C112.091 57.9267 112.528 58.899 113.135 59.7252C113.766 60.5514 114.641 61.1592 115.757 61.548C116.17 61.6938 116.607 61.8032 117.069 61.8761C117.53 61.949 117.991 61.9855 118.453 61.9855C118.914 61.9855 119.375 61.949 119.837 61.8761C120.298 61.8032 120.735 61.6938 121.148 61.548C122.265 61.1592 123.139 60.5514 123.77 59.7252C124.402 58.899 124.839 57.9267 125.081 56.8087C125.227 56.1768 125.336 55.5328 125.409 54.8766C125.506 54.1961 125.555 53.5156 125.555 52.8351C125.555 52.1789 125.506 51.5227 125.409 50.8665C125.336 50.186 125.227 49.5298 125.081 48.8979C124.839 47.7799 124.402 46.8077 123.77 45.9814C123.139 45.1308 122.265 44.5232 121.148 44.1586C120.735 44.0128 120.298 43.9034 119.837 43.8305C119.375 43.7576 118.914 43.7212 118.453 43.7212C117.991 43.7212 117.53 43.7576 117.069 43.8305C116.607 43.9034 116.17 44.0128 115.757 44.1586C114.641 44.5475 113.778 45.1551 113.171 45.9814C112.564 46.8077 112.115 47.7799 111.824 48.8979V48.8614ZM106.142 47.0022C106.773 45.0822 107.696 43.5267 108.91 42.3358C110.148 41.1206 111.763 40.2579 113.754 39.7475C114.483 39.5774 115.235 39.4437 116.012 39.3465C116.789 39.2493 117.566 39.2006 118.343 39.2006C119.169 39.1764 120.007 39.2128 120.856 39.31C121.706 39.4072 122.52 39.5652 123.297 39.7839C125.239 40.27 126.83 41.1206 128.068 42.3358C129.306 43.551 130.217 45.1186 130.8 47.0386C131.042 47.9136 131.224 48.8371 131.346 49.8093C131.492 50.7814 131.564 51.7536 131.564 52.7257C131.564 53.7708 131.504 54.7915 131.382 55.788C131.261 56.7845 131.067 57.7323 130.8 58.6315C130.217 60.6001 129.294 62.1919 128.032 63.4072C126.769 64.598 125.142 65.4245 123.151 65.8862C122.374 66.0807 121.573 66.2143 120.747 66.2872C119.922 66.3843 119.084 66.4331 118.234 66.4331C117.481 66.4331 116.729 66.3843 115.976 66.2872C115.223 66.1901 114.483 66.0562 113.754 65.8862C111.787 65.4245 110.173 64.598 108.91 63.4072C107.648 62.1919 106.725 60.6001 106.142 58.6315C105.899 57.7809 105.705 56.8574 105.559 55.8609C105.438 54.8644 105.377 53.8558 105.377 52.8351C105.377 51.8143 105.438 50.8057 105.559 49.8093C105.681 48.7885 105.875 47.8649 106.142 47.0386V47.0022ZM135.259 39.711H148.808C149.075 39.7353 149.33 39.7475 149.573 39.7475C149.84 39.7475 150.107 39.7596 150.374 39.7839C151.37 39.8326 152.341 39.9905 153.288 40.2579C154.259 40.5252 155.109 41.0234 155.837 41.7525C156.493 42.3845 156.979 43.1257 157.294 43.9763C157.634 44.827 157.841 45.7019 157.913 46.6012C157.913 46.7713 157.913 46.9414 157.913 47.1115C157.938 47.2816 157.95 47.4518 157.95 47.6219C157.974 49.4447 157.549 51.0245 156.675 52.3612C155.825 53.6736 154.49 54.5485 152.669 54.986L159.188 65.8862H152.997L147.242 55.6057H140.759V65.8862H135.259V39.711ZM147.497 44.3774H140.759V50.9758H147.497C147.545 51.0001 147.594 51.0123 147.643 51.0123C147.691 51.0123 147.74 51.0123 147.788 51.0123C148.954 51.0123 150.01 50.8422 150.957 50.5019C151.928 50.1374 152.402 49.2017 152.377 47.6948C152.377 46.1394 151.867 45.2037 150.848 44.8877C149.852 44.5718 148.735 44.4138 147.497 44.4138V44.3774ZM173.356 44.268C171.341 44.2923 169.836 44.8391 168.84 45.9085C167.844 46.9535 167.286 48.4482 167.165 50.3925L182.389 50.3561V54.9131H167.128C167.128 55.8366 167.225 56.7237 167.42 57.5743C167.638 58.425 168.063 59.2026 168.694 59.9075C169.253 60.5637 169.909 60.9769 170.661 61.147C171.438 61.2928 172.227 61.3657 173.029 61.3657C173.077 61.3657 173.126 61.3657 173.174 61.3657C173.247 61.3657 173.308 61.3657 173.356 61.3657L182.389 61.3293V65.8862H173.101C171.62 65.8862 170.188 65.7526 168.804 65.4852C167.444 65.2178 166.157 64.598 164.943 63.626C163.486 62.4352 162.466 60.9889 161.883 59.2877C161.301 57.5622 160.985 55.8001 160.937 54.0017C160.912 53.6128 160.9 53.2361 160.9 52.8715C160.924 52.507 160.949 52.1424 160.973 51.7779C161.24 47.6462 162.357 44.6083 164.324 42.6639C166.315 40.7196 169.289 39.7475 173.247 39.7475L182.389 39.711V44.268H173.356Z" fill="#EB4433"/>
<path d="M104.145 73.5762H201.744V101.488C201.744 110.139 194.738 117.152 186.094 117.152H104.145V73.5762Z" fill="#4F5B93"/>
<path d="M128.673 87.953H122.299V95.6816H129C130.336 95.6816 131.489 95.4264 132.461 94.916C133.432 94.3814 133.917 93.3606 133.917 91.8537C133.966 90.1767 133.444 89.1195 132.351 88.6821C131.283 88.2204 130.057 87.9894 128.673 87.9894V87.953ZM116.799 83.2866H128.745C128.77 83.3108 128.794 83.3231 128.818 83.3231C128.867 83.3231 128.903 83.3231 128.928 83.3231C129.389 83.3231 129.85 83.3231 130.312 83.3231C130.773 83.3231 131.234 83.3473 131.696 83.396C132.521 83.4447 133.335 83.566 134.136 83.7605C134.961 83.9306 135.726 84.2222 136.43 84.6355C137.718 85.3888 138.628 86.4218 139.162 87.7342C139.721 89.0466 140.012 90.4197 140.036 91.8537C140.06 93.1661 139.83 94.4298 139.344 95.6451C138.883 96.8604 138.106 97.8689 137.013 98.6709C136.09 99.3271 135.083 99.7646 133.99 99.9833C132.922 100.178 131.829 100.299 130.712 100.348C130.421 100.348 130.13 100.348 129.838 100.348C129.547 100.348 129.255 100.348 128.964 100.348L122.299 100.311V109.462H116.799V83.2866ZM149.331 83.2866V93.8952H159.42V83.2866H164.919V109.462H159.42V98.5251H149.331V109.462H143.831V83.2866H149.331ZM182.167 87.953H175.794V95.6816H182.495C183.831 95.6816 184.984 95.4264 185.955 94.916C186.926 94.3814 187.412 93.3606 187.412 91.8537C187.461 90.1767 186.939 89.1195 185.846 88.6821C184.777 88.2204 183.551 87.9894 182.167 87.9894V87.953ZM170.294 83.2866H182.24C182.264 83.3108 182.289 83.3231 182.313 83.3231C182.362 83.3231 182.398 83.3231 182.422 83.3231C182.884 83.3231 183.345 83.3231 183.806 83.3231C184.268 83.3231 184.729 83.3473 185.19 83.396C186.016 83.4447 186.829 83.566 187.631 83.7605C188.456 83.9306 189.221 84.2222 189.925 84.6355C191.212 85.3888 192.123 86.4218 192.657 87.7342C193.215 89.0466 193.507 90.4197 193.531 91.8537C193.555 93.1661 193.325 94.4298 192.839 95.6451C192.378 96.8604 191.601 97.8689 190.508 98.6709C189.585 99.3271 188.578 99.7646 187.485 99.9833C186.416 100.178 185.324 100.299 184.207 100.348C183.916 100.348 183.624 100.348 183.333 100.348C183.041 100.348 182.75 100.348 182.459 100.348L175.794 100.311V109.462H170.294V83.2866Z" fill="white"/>
</g>
<defs>
<linearGradient id="paint0_linear_222_22" x1="520.943" y1="423.461" x2="636.059" y2="369.033" gradientUnits="userSpaceOnUse">
<stop stop-color="white"/>
<stop offset="1" stop-color="#EEEEEE"/>
</linearGradient>
<linearGradient id="paint1_linear_222_22" x1="738.732" y1="371.005" x2="724.393" y2="420.618" gradientUnits="userSpaceOnUse">
<stop stop-color="white"/>
<stop offset="1" stop-color="#EEEEEE"/>
</linearGradient>
<linearGradient id="paint2_linear_222_22" x1="321.765" y1="392.495" x2="258.427" y2="293.127" gradientUnits="userSpaceOnUse">
<stop stop-color="white"/>
<stop offset="1" stop-color="#EEEEEE"/>
</linearGradient>
<clipPath id="clip0_222_22">
<rect width="635" height="423" fill="white" transform="translate(222 110)"/>
</clipPath>
<clipPath id="clip1_222_22">
<rect width="166.744" height="90" fill="white" transform="translate(35 30)"/>
</clipPath>
</defs>
</svg>
